<svg width="1584" height="396" viewBox="0 0 1584 396" fill="none" xmlns="http://www.w3.org/2000/svg">
<rect width="1584" height="396" fill="#F5F5F5"/>
<g id="Awesome banner" clip-path="url(#clip0_0_1)">
<rect width="1584" height="396" fill="url(#paint0_linear_0_1)"/>
<ellipse id="Ellipse 2" cx="323" cy="64" rx="285" ry="288" fill="url(#paint1_linear_0_1)" fill-opacity="0.1"/>
<g id="copyright">
<path d="M75.95 334.52L72.30 334.52L72.30 311.16L77.20 311.16L83.70 330.04Q83.60 329.02 83.50 327.62Q83.41 326.23 83.33 324.79Q83.25 323.35 83.25 322.23L83.25 311.16L86.90 311.16L86.90 334.52L82 334.52L75.57 315.64Q75.63 316.57 75.73 317.88Q75.82 319.19 75.89 320.57Q75.95 321.94 75.95 323.10L75.95 334.52M98.80 334.84Q96.46 334.84 94.67 333.96Q92.88 333.08 91.89 331.53Q90.90 329.98 90.90 327.93Q90.90 325.78 92.13 324.18Q93.36 322.58 95.34 322.17L95.34 322.10Q93.65 321.75 92.61 320.38Q91.57 319 91.57 317.11Q91.57 315.26 92.48 313.85Q93.39 312.44 95.02 311.64Q96.66 310.84 98.80 310.84Q100.94 310.84 102.59 311.64Q104.24 312.44 105.15 313.85Q106.06 315.26 106.06 317.11Q106.06 319 105.01 320.38Q103.95 321.75 102.26 322.10L102.26 322.17Q104.24 322.58 105.47 324.18Q106.70 325.78 106.70 327.93Q106.70 329.98 105.71 331.53Q104.72 333.08 102.93 333.96Q101.14 334.84 98.80 334.84M98.80 320.73Q100.30 320.73 101.23 319.82Q102.16 318.90 102.16 317.46Q102.16 315.99 101.23 315.08Q100.30 314.17 98.80 314.17Q97.30 314.17 96.37 315.08Q95.44 315.99 95.44 317.46Q95.44 318.90 96.37 319.82Q97.30 320.73 98.80 320.73M98.80 331.45Q100.56 331.45 101.68 330.42Q102.80 329.40 102.80 327.74Q102.80 326.04 101.68 325Q100.56 323.96 98.80 323.96Q97.04 323.96 95.92 325Q94.80 326.04 94.80 327.74Q94.80 329.40 95.92 330.42Q97.04 331.45 98.80 331.45M114.35 334.52L110.70 334.52L110.70 311.16L115.60 311.16L122.10 330.04Q122 329.02 121.90 327.62Q121.81 326.23 121.73 324.79Q121.65 323.35 121.65 322.23L121.65 311.16L125.30 311.16L125.30 334.52L120.40 334.52L113.97 315.64Q114.03 316.57 114.13 317.88Q114.22 319.19 114.29 320.57Q114.35 321.94 114.35 323.10" fill="white" fill-opacity="0.9"/>
<path d="M161.48 325.24L151.24 325.24L151.24 322.68L161.48 322.68" fill="white" fill-opacity="0.9"/>
<path d="M195.02 334.84Q191.82 334.84 189.96 333.05Q188.11 331.26 188.11 328.12L188.11 317.56Q188.11 314.42 189.96 312.63Q191.82 310.84 195.02 310.84Q198.15 310.84 200.01 312.65Q201.87 314.46 201.87 317.56L198.99 317.56Q198.99 315.58 197.95 314.50Q196.91 313.43 195.02 313.43Q193.13 313.43 192.06 314.50Q190.99 315.58 190.99 317.56L190.99 328.12Q190.99 330.10 192.06 331.18Q193.13 332.25 195.02 332.25Q196.91 332.25 197.95 331.18Q198.99 330.10 198.99 328.12L201.87 328.12Q201.87 331.22 200.01 333.03Q198.15 334.84 195.02 334.84" fill="white" fill-opacity="0.9"/>
<path d="M213.96 334.84Q210.83 334.84 209 333.02Q207.18 331.19 207.18 327.80L207.18 317.88Q207.18 314.49 209 312.66Q210.83 310.84 213.96 310.84Q217.10 310.84 218.92 312.66Q220.75 314.49 220.75 317.85L220.75 327.80Q220.75 331.19 218.92 333.02Q217.10 334.84 213.96 334.84M213.96 332.25Q215.85 332.25 216.86 331.18Q217.87 330.10 217.87 328.12L217.87 317.56Q217.87 315.58 216.86 314.50Q215.85 313.43 213.96 313.43Q212.11 313.43 211.08 314.50Q210.06 315.58 210.06 317.56L210.06 328.12Q210.06 330.10 211.08 331.18Q212.11 332.25 213.96 332.25" fill="white" fill-opacity="0.9"/>
<path d="M228.65 334.52L225.87 334.52L225.87 311.16L230.12 311.16L233.10 321.27L236.20 311.16L240.46 311.16L240.46 334.52L237.67 334.52L237.67 323.48Q237.67 321.91 237.72 319.88Q237.77 317.85 237.87 315.77Q237.96 313.69 238.09 312.02L234.31 324.09L231.82 324.09L228.20 312.31Q228.46 314.68 228.55 317.50Q228.65 320.31 228.65 323.48" fill="white" fill-opacity="0.9"/>
<path d="M247.85 334.52L245.07 334.52L245.07 311.16L249.32 311.16L252.30 321.27L255.40 311.16L259.66 311.16L259.66 334.52L256.87 334.52L256.87 323.48Q256.87 321.91 256.92 319.88Q256.97 317.85 257.07 315.77Q257.16 313.69 257.29 312.02L253.51 324.09L251.02 324.09L247.40 312.31Q247.66 314.68 247.75 317.50Q247.85 320.31 247.85 323.48" fill="white" fill-opacity="0.9"/>
<path d="M271.56 334.84Q268.30 334.84 266.57 333.03Q264.84 331.22 264.84 328.12L264.84 311.16L267.72 311.16L267.72 328.12Q267.72 330.04 268.67 331.16Q269.61 332.28 271.56 332.28Q273.48 332.28 274.44 331.16Q275.40 330.04 275.40 328.12L275.40 311.16L278.28 311.16L278.28 328.12Q278.28 331.26 276.57 333.05Q274.86 334.84 271.56 334.84" fill="white" fill-opacity="0.9"/>
<path d="M286.83 334.52L284.04 334.52L284.04 311.16L287.88 311.16L295.02 331.16Q294.95 330.36 294.87 329.19Q294.79 328.02 294.75 326.73Q294.70 325.43 294.70 324.28L294.70 311.16L297.48 311.16L297.48 334.52L293.64 334.52L286.54 314.52Q286.60 315.29 286.67 316.46Q286.73 317.62 286.78 318.92Q286.83 320.22 286.83 321.40" fill="white" fill-opacity="0.9"/>
<path d="M316.20 334.52L303.72 334.52L303.72 331.90L308.49 331.90L308.49 313.78L303.72 313.78L303.72 311.16L316.20 311.16L316.20 313.78L311.43 313.78L311.43 331.90L316.20 331.90" fill="white" fill-opacity="0.9"/>
<path d="M330.60 334.52L327.72 334.52L327.72 313.78L321.32 313.78L321.32 311.16L337 311.16L337 313.78L330.60 313.78" fill="white" fill-opacity="0.9"/>
<path d="M349.80 334.52L346.92 334.52L346.92 325.78L339.88 311.16L342.95 311.16L347.50 320.76Q347.88 321.56 348.11 322.12Q348.33 322.68 348.39 322.94Q348.46 322.68 348.70 322.12Q348.94 321.56 349.32 320.76L353.87 311.16L356.84 311.16L349.80 325.78" fill="white" fill-opacity="0.9"/>
<path d="M382.83 334.52L380.04 334.52L380.04 311.16L383.88 311.16L391.02 331.16Q390.95 330.36 390.87 329.19Q390.79 328.02 390.75 326.73Q390.70 325.43 390.70 324.28L390.70 311.16L393.48 311.16L393.48 334.52L389.64 334.52L382.54 314.52Q382.60 315.29 382.67 316.46Q382.73 317.62 382.78 318.92Q382.83 320.22 382.83 321.40" fill="white" fill-opacity="0.9"/>
<path d="M405.96 334.84Q402.83 334.84 401 333.02Q399.18 331.19 399.18 327.80L399.18 317.88Q399.18 314.49 401 312.66Q402.83 310.84 405.96 310.84Q409.10 310.84 410.92 312.66Q412.75 314.49 412.75 317.85L412.75 327.80Q412.75 331.19 410.92 333.02Q409.10 334.84 405.96 334.84M405.96 332.25Q407.85 332.25 408.86 331.18Q409.87 330.10 409.87 328.12L409.87 317.56Q409.87 315.58 408.86 314.50Q407.85 313.43 405.96 313.43Q404.11 313.43 403.08 314.50Q402.06 315.58 402.06 317.56L402.06 328.12Q402.06 330.10 403.08 331.18Q404.11 332.25 405.96 332.25" fill="white" fill-opacity="0.9"/>
<path d="M424.55 334.52L418.51 334.52L418.51 311.16L424.55 311.16Q426.83 311.16 428.47 312.02Q430.12 312.89 431.03 314.46Q431.95 316.02 431.95 318.17L431.95 327.48Q431.95 329.62 431.03 331.21Q430.12 332.79 428.47 333.66Q426.83 334.52 424.55 334.52M421.39 313.72L421.39 331.96L424.55 331.96Q426.67 331.96 427.87 330.78Q429.07 329.59 429.07 327.48L429.07 318.17Q429.07 316.09 427.87 314.90Q426.67 313.72 424.55 313.72" fill="white" fill-opacity="0.9"/>
<path d="M451.40 334.52L437.96 334.52L437.96 311.16L451.40 311.16L451.40 313.78L440.81 313.78L440.81 321.02L450.28 321.02L450.28 323.58L440.81 323.58L440.81 331.90L451.40 331.90" fill="white" fill-opacity="0.9"/>
<path d="M463.69 334.84Q460.30 334.84 458.28 333.05Q456.27 331.26 456.27 328.12L459.15 328.12Q459.15 330.07 460.39 331.18Q461.64 332.28 463.69 332.28Q465.67 332.28 466.86 331.13Q468.04 329.98 468.04 328.12Q468.04 326.71 467.29 325.67Q466.54 324.63 465.13 324.25L461.58 323.26Q459.37 322.62 458.11 320.97Q456.84 319.32 456.84 317.08Q456.84 315.22 457.67 313.82Q458.51 312.41 460.01 311.62Q461.51 310.84 463.47 310.84Q465.45 310.84 466.97 311.62Q468.49 312.41 469.35 313.80Q470.22 315.19 470.22 317.02L467.34 317.02Q467.34 315.42 466.25 314.41Q465.16 313.40 463.47 313.40Q461.77 313.40 460.71 314.41Q459.66 315.42 459.66 317.02Q459.66 318.30 460.35 319.21Q461.03 320.12 462.28 320.47L465.93 321.50Q468.27 322.14 469.56 323.91Q470.86 325.69 470.86 328.12Q470.86 331.19 468.91 333.02Q466.95 334.84 463.69 334.84" fill="white" fill-opacity="0.9"/>
</g>
<path d="M82.48 197.64L72.40 197.64L72.40 180.12L82.48 180.12L82.48 182.09L74.54 182.09L74.54 187.51L81.64 187.51L81.64 189.43L74.54 189.43L74.54 195.67L82.48 195.67" fill="white" fill-opacity="0.7"/>
<path d="M91.14 197.64L86.61 197.64L86.61 180.12L91.14 180.12Q92.85 180.12 94.08 180.77Q95.32 181.42 96 182.59Q96.69 183.77 96.69 185.38L96.69 192.36Q96.69 193.97 96 195.16Q95.32 196.34 94.08 196.99Q92.85 197.64 91.14 197.64M88.77 182.04L88.77 195.72L91.14 195.72Q92.73 195.72 93.63 194.83Q94.53 193.94 94.53 192.36L94.53 185.38Q94.53 183.82 93.63 182.93Q92.73 182.04 91.14 182.04" fill="white" fill-opacity="0.7"/>
<path d="M112.12 197.64L100.84 197.64L100.84 195.67L105.52 195.67L105.52 186.41L101.32 186.41L101.32 184.44L107.68 184.44L107.68 195.67L112.12 195.67L112.12 197.64M106.36 182.06Q105.57 182.06 105.11 181.66Q104.66 181.25 104.66 180.55Q104.66 179.83 105.11 179.41Q105.57 178.99 106.36 178.99Q107.15 178.99 107.61 179.41Q108.06 179.83 108.06 180.55Q108.06 181.25 107.61 181.66Q107.15 182.06 106.36 182.06" fill="white" fill-opacity="0.7"/>
<path d="M120.93 197.83L119.87 197.83Q117.66 197.83 116.45 196.84Q115.24 195.84 115.24 194.02L117.40 194.02Q117.40 194.93 118.05 195.44Q118.70 195.96 119.87 195.96L120.93 195.96Q122.13 195.96 122.79 195.43Q123.45 194.90 123.45 193.94Q123.45 192.24 121.89 192.02L118.24 191.50Q116.90 191.30 116.15 190.38Q115.41 189.46 115.41 187.94Q115.41 186.22 116.60 185.23Q117.78 184.25 119.87 184.25L120.93 184.25Q122.85 184.25 124.06 185.20Q125.27 186.14 125.37 187.68L123.18 187.68Q123.14 186.98 122.52 186.53Q121.91 186.07 120.93 186.07L119.87 186.07Q118.77 186.07 118.14 186.58Q117.52 187.08 117.52 187.94Q117.52 189.34 118.79 189.53L122.20 190.01Q125.56 190.49 125.56 193.94Q125.56 195.79 124.35 196.81Q123.14 197.83 120.93 197.83" fill="white" fill-opacity="0.7"/>
<path d="M139.96 197.64L136.12 197.64Q134.49 197.64 133.50 196.69Q132.52 195.74 132.52 194.16L132.52 186.41L128.73 186.41L128.73 184.44L132.52 184.44L132.52 180.72L134.68 180.72L134.68 184.44L140.08 184.44L140.08 186.41L134.68 186.41L134.68 194.16Q134.68 194.83 135.08 195.25Q135.47 195.67 136.12 195.67L139.96 195.67" fill="white" fill-opacity="0.7"/>
<path d="M146.85 197.64L144.69 197.64L144.69 184.44L146.85 184.44L146.85 186.96L146.90 186.96Q147.06 185.69 147.98 184.94Q148.89 184.20 150.42 184.20Q152.49 184.20 153.60 185.44Q154.72 186.67 154.72 188.95L154.72 190.08L152.56 190.08L152.56 188.95Q152.56 186.07 149.75 186.07Q148.34 186.07 147.59 186.89Q146.85 187.70 146.85 189.24" fill="white" fill-opacity="0.7"/>
<path d="M169.72 197.64L158.44 197.64L158.44 195.67L163.12 195.67L163.12 186.41L158.92 186.41L158.92 184.44L165.28 184.44L165.28 195.67L169.72 195.67L169.72 197.64M163.96 182.06Q163.17 182.06 162.71 181.66Q162.26 181.25 162.26 180.55Q162.26 179.83 162.71 179.41Q163.17 178.99 163.96 178.99Q164.75 178.99 165.21 179.41Q165.66 179.83 165.66 180.55Q165.66 181.25 165.21 181.66Q164.75 182.06 163.96 182.06" fill="white" fill-opacity="0.7"/>
<path d="M178.19 197.88Q175.79 197.88 174.35 196.54Q172.91 195.19 172.91 192.84L172.91 189.24Q172.91 186.89 174.35 185.54Q175.79 184.20 178.19 184.20Q180.47 184.20 181.88 185.42Q183.28 186.65 183.35 188.76L181.19 188.76Q181.12 187.49 180.33 186.80Q179.54 186.12 178.19 186.12Q176.78 186.12 175.92 186.92Q175.07 187.73 175.07 189.22L175.07 192.84Q175.07 194.33 175.92 195.14Q176.78 195.96 178.19 195.96Q179.54 195.96 180.33 195.26Q181.12 194.57 181.19 193.32L183.35 193.32Q183.28 195.43 181.88 196.66Q180.47 197.88 178.19 197.88" fill="white" fill-opacity="0.7"/>
<path d="M197.56 197.64L193.72 197.64Q192.09 197.64 191.10 196.69Q190.12 195.74 190.12 194.16L190.12 186.41L186.33 186.41L186.33 184.44L190.12 184.44L190.12 180.72L192.28 180.72L192.28 184.44L197.68 184.44L197.68 186.41L192.28 186.41L192.28 194.16Q192.28 194.83 192.68 195.25Q193.07 195.67 193.72 195.67L197.56 195.67" fill="white" fill-opacity="0.7"/>
<path d="M221.39 197.88Q218.99 197.88 217.60 196.54Q216.21 195.19 216.21 192.84L216.21 184.92Q216.21 182.57 217.60 181.22Q218.99 179.88 221.39 179.88Q223.74 179.88 225.14 181.24Q226.53 182.59 226.53 184.92L224.37 184.92Q224.37 183.43 223.59 182.63Q222.81 181.82 221.39 181.82Q219.98 181.82 219.17 182.63Q218.37 183.43 218.37 184.92L218.37 192.84Q218.37 194.33 219.17 195.13Q219.98 195.94 221.39 195.94Q222.81 195.94 223.59 195.13Q224.37 194.33 224.37 192.84L226.53 192.84Q226.53 195.17 225.14 196.52Q223.74 197.88 221.39 197.88" fill="white" fill-opacity="0.7"/>
<path d="M232.77 197.64L230.61 197.64L230.61 180.12L232.77 180.12L232.77 186.96L232.79 186.96Q232.96 185.64 233.87 184.92Q234.78 184.20 236.30 184.20Q238.29 184.20 239.46 185.42Q240.64 186.65 240.64 188.76L240.64 197.64L238.48 197.64L238.48 189.12Q238.48 187.63 237.72 186.83Q236.97 186.02 235.67 186.02Q234.33 186.02 233.55 186.86Q232.77 187.70 232.77 189.24" fill="white" fill-opacity="0.7"/>
<path d="M248.85 197.88Q246.81 197.88 245.61 196.74Q244.41 195.60 244.41 193.75Q244.41 192.53 244.96 191.62Q245.51 190.70 246.50 190.19Q247.48 189.67 248.75 189.67L252.83 189.67L252.83 188.64Q252.83 186.07 250.02 186.07Q248.78 186.07 248.01 186.53Q247.24 186.98 247.19 187.80L245.03 187.80Q245.15 186.24 246.48 185.22Q247.82 184.20 250.02 184.20Q252.42 184.20 253.71 185.35Q254.99 186.50 254.99 188.57L254.99 197.64L252.86 197.64L252.86 195.24L252.81 195.24Q252.62 196.46 251.58 197.17Q250.55 197.88 248.85 197.88M249.38 196.06Q250.96 196.06 251.90 195.29Q252.83 194.52 252.83 193.20L252.83 191.35L248.99 191.35Q247.94 191.35 247.28 191.99Q246.62 192.62 246.62 193.68Q246.62 194.78 247.35 195.42Q248.08 196.06 249.38 196.06" fill="white" fill-opacity="0.7"/>
<path d="M261.57 197.64L259.41 197.64L259.41 184.44L261.57 184.44L261.57 186.96L261.59 186.96Q261.76 185.64 262.67 184.92Q263.58 184.20 265.10 184.20Q267.09 184.20 268.26 185.42Q269.44 186.65 269.44 188.76L269.44 197.64L267.28 197.64L267.28 189.14Q267.28 187.63 266.52 186.83Q265.77 186.02 264.47 186.02Q263.13 186.02 262.35 186.86Q261.57 187.70 261.57 189.24" fill="white" fill-opacity="0.7"/>
<path d="M278.03 197.88Q276.06 197.88 274.88 196.56Q273.69 195.24 273.69 192.98L273.69 189.12Q273.69 186.84 274.86 185.52Q276.04 184.20 278.03 184.20Q279.52 184.20 280.49 184.94Q281.46 185.69 281.66 186.96L281.68 186.96L281.63 183.96L281.63 180.12L283.79 180.12L283.79 197.64L281.63 197.64L281.63 195.12L281.61 195.12Q281.44 196.42 280.48 197.15Q279.52 197.88 278.03 197.88M278.75 196.01Q280.10 196.01 280.86 195.17Q281.63 194.33 281.63 192.84L281.63 189.24Q281.63 187.75 280.86 186.91Q280.10 186.07 278.75 186.07Q277.38 186.07 276.62 186.78Q275.85 187.49 275.85 189.12L275.85 192.96Q275.85 194.57 276.62 195.29Q277.38 196.01 278.75 196.01" fill="white" fill-opacity="0.7"/>
<path d="M299.32 197.64L288.04 197.64L288.04 195.67L292.72 195.67L292.72 186.41L288.52 186.41L288.52 184.44L294.88 184.44L294.88 195.67L299.32 195.67L299.32 197.64M293.56 182.06Q292.77 182.06 292.31 181.66Q291.86 181.25 291.86 180.55Q291.86 179.83 292.31 179.41Q292.77 178.99 293.56 178.99Q294.35 178.99 294.81 179.41Q295.26 179.83 295.26 180.55Q295.26 181.25 294.81 181.66Q294.35 182.06 293.56 182.06" fill="white" fill-opacity="0.7"/>
<path d="M307.96 201.96L304.26 201.96L304.26 199.99L307.98 199.99Q309.11 199.99 309.76 199.36Q310.41 198.72 310.41 197.64L310.41 196.44L310.46 194.28L310.38 194.28Q310.19 195.46 309.26 196.09Q308.32 196.73 306.90 196.73Q304.86 196.73 303.69 195.43Q302.51 194.14 302.51 191.88L302.51 189.10Q302.51 186.84 303.69 185.52Q304.86 184.20 306.90 184.20Q308.32 184.20 309.26 184.87Q310.19 185.54 310.38 186.72L310.43 186.72L310.43 184.44L312.57 184.44L312.57 197.64Q312.57 199.63 311.33 200.80Q310.10 201.96 307.96 201.96M307.55 194.93Q308.90 194.93 309.66 194.09Q310.43 193.25 310.43 191.76L310.43 189.24Q310.43 187.75 309.66 186.91Q308.90 186.07 307.55 186.07Q306.18 186.07 305.43 186.86Q304.67 187.66 304.67 189L304.67 192Q304.67 193.34 305.43 194.14Q306.18 194.93 307.55 194.93" fill="white" fill-opacity="0.7"/>
<path d="M320.85 197.88Q318.81 197.88 317.61 196.74Q316.41 195.60 316.41 193.75Q316.41 192.53 316.96 191.62Q317.51 190.70 318.50 190.19Q319.48 189.67 320.75 189.67L324.83 189.67L324.83 188.64Q324.83 186.07 322.02 186.07Q320.78 186.07 320.01 186.53Q319.24 186.98 319.19 187.80L317.03 187.80Q317.15 186.24 318.48 185.22Q319.82 184.20 322.02 184.20Q324.42 184.20 325.71 185.35Q326.99 186.50 326.99 188.57L326.99 197.64L324.86 197.64L324.86 195.24L324.81 195.24Q324.62 196.46 323.58 197.17Q322.55 197.88 320.85 197.88M321.38 196.06Q322.96 196.06 323.90 195.29Q324.83 194.52 324.83 193.20L324.83 191.35L320.99 191.35Q319.94 191.35 319.28 191.99Q318.62 192.62 318.62 193.68Q318.62 194.78 319.35 195.42Q320.08 196.06 321.38 196.06" fill="white" fill-opacity="0.7"/>
<path d="M334.05 197.64L331.89 197.64L331.89 184.44L334.05 184.44L334.05 186.96L334.10 186.96Q334.26 185.69 335.18 184.94Q336.09 184.20 337.62 184.20Q339.69 184.20 340.80 185.44Q341.92 186.67 341.92 188.95L341.92 190.08L339.76 190.08L339.76 188.95Q339.76 186.07 336.95 186.07Q335.54 186.07 334.79 186.89Q334.05 187.70 334.05 189.24" fill="white" fill-opacity="0.7"/>
<path d="M347.97 197.64L345.81 197.64L345.81 180.12L347.97 180.12L347.97 186.96L347.99 186.96Q348.16 185.64 349.07 184.92Q349.98 184.20 351.50 184.20Q353.49 184.20 354.66 185.42Q355.84 186.65 355.84 188.76L355.84 197.64L353.68 197.64L353.68 189.12Q353.68 187.63 352.92 186.83Q352.17 186.02 350.87 186.02Q349.53 186.02 348.75 186.86Q347.97 187.70 347.97 189.24" fill="white" fill-opacity="0.7"/>
<path d="M376.77 201.96L374.61 201.96L374.61 184.44L376.77 184.44L376.77 186.96L376.79 186.96Q376.96 185.66 377.92 184.93Q378.88 184.20 380.37 184.20Q382.36 184.20 383.54 185.51Q384.71 186.82 384.71 189.10L384.71 192.96Q384.71 195.24 383.54 196.56Q382.36 197.88 380.37 197.88Q378.88 197.88 377.92 197.14Q376.96 196.39 376.79 195.12L376.72 195.12L376.77 198.12L376.77 201.96M379.65 196.01Q381.02 196.01 381.78 195.29Q382.55 194.57 382.55 192.96L382.55 189.12Q382.55 187.49 381.78 186.78Q381.02 186.07 379.65 186.07Q378.33 186.07 377.55 186.91Q376.77 187.75 376.77 189.24L376.77 192.84Q376.77 194.33 377.55 195.17Q378.33 196.01 379.65 196.01" fill="white" fill-opacity="0.7"/>
<path d="M394 197.83Q391.62 197.83 390.22 196.44Q388.82 195.05 388.82 192.55L388.82 189.53Q388.82 187.01 390.21 185.63Q391.60 184.25 394 184.25Q396.40 184.25 397.79 185.63Q399.18 187.01 399.18 189.53L399.18 192.55Q399.18 195.05 397.78 196.44Q396.38 197.83 394 197.83M394 195.91Q395.42 195.91 396.22 195.12Q397.02 194.33 397.02 192.79L397.02 189.29Q397.02 187.75 396.22 186.96Q395.42 186.17 394 186.17Q392.61 186.17 391.79 186.96Q390.98 187.75 390.98 189.29L390.98 192.79Q390.98 194.33 391.79 195.12Q392.61 195.91 394 195.91" fill="white" fill-opacity="0.7"/>
<path d="M406.05 197.64L403.89 197.64L403.89 184.44L406.05 184.44L406.05 186.96L406.10 186.96Q406.26 185.69 407.18 184.94Q408.09 184.20 409.62 184.20Q411.69 184.20 412.80 185.44Q413.92 186.67 413.92 188.95L413.92 190.08L411.76 190.08L411.76 188.95Q411.76 186.07 408.95 186.07Q407.54 186.07 406.79 186.89Q406.05 187.70 406.05 189.24" fill="white" fill-opacity="0.7"/>
<path d="M427.96 197.64L424.12 197.64Q422.49 197.64 421.50 196.69Q420.52 195.74 420.52 194.16L420.52 186.41L416.73 186.41L416.73 184.44L420.52 184.44L420.52 180.72L422.68 180.72L422.68 184.44L428.08 184.44L428.08 186.41L422.68 186.41L422.68 194.16Q422.68 194.83 423.08 195.25Q423.47 195.67 424.12 195.67L427.96 195.67" fill="white" fill-opacity="0.7"/>
<path d="M436.05 197.88Q434.01 197.88 432.81 196.74Q431.61 195.60 431.61 193.75Q431.61 192.53 432.16 191.62Q432.71 190.70 433.70 190.19Q434.68 189.67 435.95 189.67L440.03 189.67L440.03 188.64Q440.03 186.07 437.22 186.07Q435.98 186.07 435.21 186.53Q434.44 186.98 434.39 187.80L432.23 187.80Q432.35 186.24 433.68 185.22Q435.02 184.20 437.22 184.20Q439.62 184.20 440.91 185.35Q442.19 186.50 442.19 188.57L442.19 197.64L440.06 197.64L440.06 195.24L440.01 195.24Q439.82 196.46 438.78 197.17Q437.75 197.88 436.05 197.88M436.58 196.06Q438.16 196.06 439.10 195.29Q440.03 194.52 440.03 193.20L440.03 191.35L436.19 191.35Q435.14 191.35 434.48 191.99Q433.82 192.62 433.82 193.68Q433.82 194.78 434.55 195.42Q435.28 196.06 436.58 196.06" fill="white" fill-opacity="0.7"/>
<path d="M457.60 197.64L453.52 197.64Q451.77 197.64 450.72 196.62Q449.68 195.60 449.68 193.92L449.68 182.09L445.12 182.09L445.12 180.12L451.84 180.12L451.84 193.92Q451.84 194.74 452.30 195.20Q452.75 195.67 453.52 195.67L457.60 195.67" fill="white" fill-opacity="0.7"/>
<path d="M486.52 197.64L475.24 197.64L475.24 195.67L479.92 195.67L479.92 186.41L475.72 186.41L475.72 184.44L482.08 184.44L482.08 195.67L486.52 195.67L486.52 197.64M480.76 182.06Q479.97 182.06 479.51 181.66Q479.06 181.25 479.06 180.55Q479.06 179.83 479.51 179.41Q479.97 178.99 480.76 178.99Q481.55 178.99 482.01 179.41Q482.46 179.83 482.46 180.55Q482.46 181.25 482.01 181.66Q481.55 182.06 480.76 182.06" fill="white" fill-opacity="0.7"/>
<path d="M495.33 197.83L494.27 197.83Q492.06 197.83 490.85 196.84Q489.64 195.84 489.64 194.02L491.80 194.02Q491.80 194.93 492.45 195.44Q493.10 195.96 494.27 195.96L495.33 195.96Q496.53 195.96 497.19 195.43Q497.85 194.90 497.85 193.94Q497.85 192.24 496.29 192.02L492.64 191.50Q491.30 191.30 490.55 190.38Q489.81 189.46 489.81 187.94Q489.81 186.22 491 185.23Q492.18 184.25 494.27 184.25L495.33 184.25Q497.25 184.25 498.46 185.20Q499.67 186.14 499.77 187.68L497.58 187.68Q497.54 186.98 496.92 186.53Q496.31 186.07 495.33 186.07L494.27 186.07Q493.17 186.07 492.54 186.58Q491.92 187.08 491.92 187.94Q491.92 189.34 493.19 189.53L496.60 190.01Q499.96 190.49 499.96 193.94Q499.96 195.79 498.75 196.81Q497.54 197.83 495.33 197.83" fill="white" fill-opacity="0.7"/>
<path d="M509.73 197.83L508.67 197.83Q506.46 197.83 505.25 196.84Q504.04 195.84 504.04 194.02L506.20 194.02Q506.20 194.93 506.85 195.44Q507.50 195.96 508.67 195.96L509.73 195.96Q510.93 195.96 511.59 195.43Q512.25 194.90 512.25 193.94Q512.25 192.24 510.69 192.02L507.04 191.50Q505.70 191.30 504.95 190.38Q504.21 189.46 504.21 187.94Q504.21 186.22 505.40 185.23Q506.58 184.25 508.67 184.25L509.73 184.25Q511.65 184.25 512.86 185.20Q514.07 186.14 514.17 187.68L511.98 187.68Q511.94 186.98 511.32 186.53Q510.71 186.07 509.73 186.07L508.67 186.07Q507.57 186.07 506.94 186.58Q506.32 187.08 506.32 187.94Q506.32 189.34 507.59 189.53L511 190.01Q514.36 190.49 514.36 193.94Q514.36 195.79 513.15 196.81Q511.94 197.83 509.73 197.83" fill="white" fill-opacity="0.7"/>
<path d="M523.58 197.88Q521.30 197.88 519.93 196.52Q518.56 195.17 518.56 192.84L518.56 184.44L520.72 184.44L520.72 192.84Q520.72 194.28 521.49 195.13Q522.26 195.98 523.58 195.98Q524.92 195.98 525.70 195.13Q526.48 194.28 526.48 192.84L526.48 184.44L528.64 184.44L528.64 192.84Q528.64 195.17 527.25 196.52Q525.86 197.88 523.58 197.88" fill="white" fill-opacity="0.7"/>
<path d="M538 197.88Q535.67 197.88 534.24 196.48Q532.82 195.07 532.82 192.60L532.82 189.48Q532.82 187.01 534.24 185.60Q535.67 184.20 538 184.20Q539.56 184.20 540.72 184.82Q541.89 185.45 542.54 186.58Q543.18 187.70 543.18 189.24L543.18 191.59L534.93 191.59L534.93 192.84Q534.93 194.30 535.77 195.16Q536.61 196.01 538 196.01Q539.20 196.01 539.98 195.54Q540.76 195.07 540.93 194.28L543.09 194.28Q542.87 195.94 541.48 196.91Q540.09 197.88 538 197.88M534.93 189.24L534.93 189.91L541.07 189.91L541.07 189.24Q541.07 187.68 540.27 186.83Q539.46 185.98 538 185.98Q536.54 185.98 535.73 186.83Q534.93 187.68 534.93 189.24" fill="white" fill-opacity="0.7"/>
<path d="M552.93 197.83L551.87 197.83Q549.66 197.83 548.45 196.84Q547.24 195.84 547.24 194.02L549.40 194.02Q549.40 194.93 550.05 195.44Q550.70 195.96 551.87 195.96L552.93 195.96Q554.13 195.96 554.79 195.43Q555.45 194.90 555.45 193.94Q555.45 192.24 553.89 192.02L550.24 191.50Q548.90 191.30 548.15 190.38Q547.41 189.46 547.41 187.94Q547.41 186.22 548.60 185.23Q549.78 184.25 551.87 184.25L552.93 184.25Q554.85 184.25 556.06 185.20Q557.27 186.14 557.37 187.68L555.18 187.68Q555.14 186.98 554.52 186.53Q553.91 186.07 552.93 186.07L551.87 186.07Q550.77 186.07 550.14 186.58Q549.52 187.08 549.52 187.94Q549.52 189.34 550.79 189.53L554.20 190.01Q557.56 190.49 557.56 193.94Q557.56 195.79 556.35 196.81Q555.14 197.83 552.93 197.83" fill="white" fill-opacity="0.7"/>
<path d="M580.43 197.88Q578.46 197.88 577.28 196.56Q576.09 195.24 576.09 192.98L576.09 189.12Q576.09 186.84 577.26 185.52Q578.44 184.20 580.43 184.20Q581.92 184.20 582.89 184.94Q583.86 185.69 584.06 186.96L584.08 186.96L584.03 183.96L584.03 180.12L586.19 180.12L586.19 197.64L584.03 197.64L584.03 195.12L584.01 195.12Q583.84 196.42 582.88 197.15Q581.92 197.88 580.43 197.88M581.15 196.01Q582.50 196.01 583.26 195.17Q584.03 194.33 584.03 192.84L584.03 189.24Q584.03 187.75 583.26 186.91Q582.50 186.07 581.15 186.07Q579.78 186.07 579.02 186.78Q578.25 187.49 578.25 189.12L578.25 192.96Q578.25 194.57 579.02 195.29Q579.78 196.01 581.15 196.01" fill="white" fill-opacity="0.7"/>
<path d="M595.60 197.83Q593.22 197.83 591.82 196.44Q590.42 195.05 590.42 192.55L590.42 189.53Q590.42 187.01 591.81 185.63Q593.20 184.25 595.60 184.25Q598 184.25 599.39 185.63Q600.78 187.01 600.78 189.53L600.78 192.55Q600.78 195.05 599.38 196.44Q597.98 197.83 595.60 197.83M595.60 195.91Q597.02 195.91 597.82 195.12Q598.62 194.33 598.62 192.79L598.62 189.29Q598.62 187.75 597.82 186.96Q597.02 186.17 595.60 186.17Q594.21 186.17 593.39 186.96Q592.58 187.75 592.58 189.29L592.58 192.79Q592.58 194.33 593.39 195.12Q594.21 195.91 595.60 195.91" fill="white" fill-opacity="0.7"/>
<path d="M610.19 197.88Q607.79 197.88 606.35 196.54Q604.91 195.19 604.91 192.84L604.91 189.24Q604.91 186.89 606.35 185.54Q607.79 184.20 610.19 184.20Q612.47 184.20 613.88 185.42Q615.28 186.65 615.35 188.76L613.19 188.76Q613.12 187.49 612.33 186.80Q611.54 186.12 610.19 186.12Q608.78 186.12 607.92 186.92Q607.07 187.73 607.07 189.22L607.07 192.84Q607.07 194.33 607.92 195.14Q608.78 195.96 610.19 195.96Q611.54 195.96 612.33 195.26Q613.12 194.57 613.19 193.32L615.35 193.32Q615.28 195.43 613.88 196.66Q612.47 197.88 610.19 197.88" fill="white" fill-opacity="0.7"/>
<path d="M624.38 197.88Q622.10 197.88 620.73 196.52Q619.36 195.17 619.36 192.84L619.36 184.44L621.52 184.44L621.52 192.84Q621.52 194.28 622.29 195.13Q623.06 195.98 624.38 195.98Q625.72 195.98 626.50 195.13Q627.28 194.28 627.28 192.84L627.28 184.44L629.44 184.44L629.44 192.84Q629.44 195.17 628.05 196.52Q626.66 197.88 624.38 197.88" fill="white" fill-opacity="0.7"/>
<path d="M635.06 197.64L633.04 197.64L633.04 184.44L634.91 184.44L634.91 186.19L634.96 186.19Q635.08 185.30 635.67 184.75Q636.26 184.20 637.17 184.20Q638.03 184.20 638.63 184.70Q639.23 185.21 639.50 186.07L639.52 186.07Q639.69 185.21 640.28 184.70Q640.86 184.20 641.78 184.20Q643.05 184.20 643.80 185.15Q644.56 186.10 644.56 187.61L644.56 197.64L642.54 197.64L642.54 187.58Q642.54 186.79 642.16 186.32Q641.78 185.86 641.10 185.86Q640.46 185.86 640.07 186.31Q639.69 186.77 639.69 187.56L639.69 197.64L637.91 197.64L637.91 187.58Q637.91 186.79 637.53 186.32Q637.14 185.86 636.50 185.86Q635.82 185.86 635.44 186.31Q635.06 186.77 635.06 187.56" fill="white" fill-opacity="0.7"/>
<path d="M653.20 197.88Q650.87 197.88 649.44 196.48Q648.02 195.07 648.02 192.60L648.02 189.48Q648.02 187.01 649.44 185.60Q650.87 184.20 653.20 184.20Q654.76 184.20 655.92 184.82Q657.09 185.45 657.74 186.58Q658.38 187.70 658.38 189.24L658.38 191.59L650.13 191.59L650.13 192.84Q650.13 194.30 650.97 195.16Q651.81 196.01 653.20 196.01Q654.40 196.01 655.18 195.54Q655.96 195.07 656.13 194.28L658.29 194.28Q658.07 195.94 656.68 196.91Q655.29 197.88 653.20 197.88M650.13 189.24L650.13 189.91L656.27 189.91L656.27 189.24Q656.27 187.68 655.47 186.83Q654.66 185.98 653.20 185.98Q651.74 185.98 650.93 186.83Q650.13 187.68 650.13 189.24" fill="white" fill-opacity="0.7"/>
<path d="M664.77 197.64L662.61 197.64L662.61 184.44L664.77 184.44L664.77 186.96L664.79 186.96Q664.96 185.64 665.87 184.92Q666.78 184.20 668.30 184.20Q670.29 184.20 671.46 185.42Q672.64 186.65 672.64 188.76L672.64 197.64L670.48 197.64L670.48 189.14Q670.48 187.63 669.72 186.83Q668.97 186.02 667.67 186.02Q666.33 186.02 665.55 186.86Q664.77 187.70 664.77 189.24" fill="white" fill-opacity="0.7"/>
<path d="M687.16 197.64L683.32 197.64Q681.69 197.64 680.70 196.69Q679.72 195.74 679.72 194.16L679.72 186.41L675.93 186.41L675.93 184.44L679.72 184.44L679.72 180.72L681.88 180.72L681.88 184.44L687.28 184.44L687.28 186.41L681.88 186.41L681.88 194.16Q681.88 194.83 682.28 195.25Q682.67 195.67 683.32 195.67L687.16 195.67" fill="white" fill-opacity="0.7"/>
<path d="M696.93 197.83L695.87 197.83Q693.66 197.83 692.45 196.84Q691.24 195.84 691.24 194.02L693.40 194.02Q693.40 194.93 694.05 195.44Q694.70 195.96 695.87 195.96L696.93 195.96Q698.13 195.96 698.79 195.43Q699.45 194.90 699.45 193.94Q699.45 192.24 697.89 192.02L694.24 191.50Q692.90 191.30 692.15 190.38Q691.41 189.46 691.41 187.94Q691.41 186.22 692.60 185.23Q693.78 184.25 695.87 184.25L696.93 184.25Q698.85 184.25 700.06 185.20Q701.27 186.14 701.37 187.68L699.18 187.68Q699.14 186.98 698.52 186.53Q697.91 186.07 696.93 186.07L695.87 186.07Q694.77 186.07 694.14 186.58Q693.52 187.08 693.52 187.94Q693.52 189.34 694.79 189.53L698.20 190.01Q701.56 190.49 701.56 193.94Q701.56 195.79 700.35 196.81Q699.14 197.83 696.93 197.83" fill="white" fill-opacity="0.7"/>
<path d="M731.20 197.64L727.12 197.64Q725.37 197.64 724.32 196.62Q723.28 195.60 723.28 193.92L723.28 182.09L718.72 182.09L718.72 180.12L725.44 180.12L725.44 193.92Q725.44 194.74 725.90 195.20Q726.35 195.67 727.12 195.67L731.20 195.67" fill="white" fill-opacity="0.7"/>
<path d="M745.72 197.64L734.44 197.64L734.44 195.67L739.12 195.67L739.12 186.41L734.92 186.41L734.92 184.44L741.28 184.44L741.28 195.67L745.72 195.67L745.72 197.64M739.96 182.06Q739.17 182.06 738.71 181.66Q738.26 181.25 738.26 180.55Q738.26 179.83 738.71 179.41Q739.17 178.99 739.96 178.99Q740.75 178.99 741.21 179.41Q741.66 179.83 741.66 180.55Q741.66 181.25 741.21 181.66Q740.75 182.06 739.96 182.06" fill="white" fill-opacity="0.7"/>
<path d="M751.29 197.64L749.13 197.64L749.13 180.12L751.29 180.12L751.29 189.89L753.81 189.89L757.50 184.44L759.98 184.44L755.73 190.73L760.22 197.64L757.70 197.64L753.86 191.76L751.29 191.76" fill="white" fill-opacity="0.7"/>
<path d="M768.40 197.88Q766.07 197.88 764.64 196.48Q763.22 195.07 763.22 192.60L763.22 189.48Q763.22 187.01 764.64 185.60Q766.07 184.20 768.40 184.20Q769.96 184.20 771.12 184.82Q772.29 185.45 772.94 186.58Q773.58 187.70 773.58 189.24L773.58 191.59L765.33 191.59L765.33 192.84Q765.33 194.30 766.17 195.16Q767.01 196.01 768.40 196.01Q769.60 196.01 770.38 195.54Q771.16 195.07 771.33 194.28L773.49 194.28Q773.27 195.94 771.88 196.91Q770.49 197.88 768.40 197.88M765.33 189.24L765.33 189.91L771.47 189.91L771.47 189.24Q771.47 187.68 770.67 186.83Q769.86 185.98 768.40 185.98Q766.94 185.98 766.13 186.83Q765.33 187.68 765.33 189.24" fill="white" fill-opacity="0.7"/>
<path d="M797.30 197.88Q794.75 197.88 793.24 196.54Q791.73 195.19 791.73 192.84L793.89 192.84Q793.89 194.30 794.82 195.13Q795.76 195.96 797.30 195.96Q798.78 195.96 799.67 195.10Q800.56 194.23 800.56 192.84Q800.56 191.78 800 191Q799.43 190.22 798.38 189.94L795.71 189.19Q794.06 188.71 793.11 187.48Q792.16 186.24 792.16 184.56Q792.16 183.17 792.78 182.11Q793.41 181.06 794.54 180.47Q795.66 179.88 797.13 179.88Q798.62 179.88 799.76 180.47Q800.90 181.06 801.54 182.10Q802.19 183.14 802.19 184.51L800.03 184.51Q800.03 183.31 799.22 182.56Q798.40 181.80 797.13 181.80Q795.86 181.80 795.06 182.56Q794.27 183.31 794.27 184.51Q794.27 185.47 794.79 186.16Q795.30 186.84 796.24 187.10L798.98 187.87Q800.73 188.35 801.70 189.68Q802.67 191.02 802.67 192.84Q802.67 195.14 801.21 196.51Q799.74 197.88 797.30 197.88" fill="white" fill-opacity="0.7"/>
<path d="M811.60 197.88Q809.27 197.88 807.84 196.48Q806.42 195.07 806.42 192.60L806.42 189.48Q806.42 187.01 807.84 185.60Q809.27 184.20 811.60 184.20Q813.16 184.20 814.32 184.82Q815.49 185.45 816.14 186.58Q816.78 187.70 816.78 189.24L816.78 191.59L808.53 191.59L808.53 192.84Q808.53 194.30 809.37 195.16Q810.21 196.01 811.60 196.01Q812.80 196.01 813.58 195.54Q814.36 195.07 814.53 194.28L816.69 194.28Q816.47 195.94 815.08 196.91Q813.69 197.88 811.60 197.88M808.53 189.24L808.53 189.91L814.67 189.91L814.67 189.24Q814.67 187.68 813.87 186.83Q813.06 185.98 811.60 185.98Q810.14 185.98 809.33 186.83Q808.53 187.68 808.53 189.24" fill="white" fill-opacity="0.7"/>
<path d="M823.17 197.64L821.01 197.64L821.01 184.44L823.17 184.44L823.17 186.96L823.19 186.96Q823.36 185.64 824.27 184.92Q825.18 184.20 826.70 184.20Q828.69 184.20 829.86 185.42Q831.04 186.65 831.04 188.76L831.04 197.64L828.88 197.64L828.88 189.14Q828.88 187.63 828.12 186.83Q827.37 186.02 826.07 186.02Q824.73 186.02 823.95 186.86Q823.17 187.70 823.17 189.24" fill="white" fill-opacity="0.7"/>
<path d="M846.52 197.64L835.24 197.64L835.24 195.67L839.92 195.67L839.92 186.41L835.72 186.41L835.72 184.44L842.08 184.44L842.08 195.67L846.52 195.67L846.52 197.64M840.76 182.06Q839.97 182.06 839.51 181.66Q839.06 181.25 839.06 180.55Q839.06 179.83 839.51 179.41Q839.97 178.99 840.76 178.99Q841.55 178.99 842.01 179.41Q842.46 179.83 842.46 180.55Q842.46 181.25 842.01 181.66Q841.55 182.06 840.76 182.06" fill="white" fill-opacity="0.7"/>
<path d="M854.80 197.83Q852.42 197.83 851.02 196.44Q849.62 195.05 849.62 192.55L849.62 189.53Q849.62 187.01 851.01 185.63Q852.40 184.25 854.80 184.25Q857.20 184.25 858.59 185.63Q859.98 187.01 859.98 189.53L859.98 192.55Q859.98 195.05 858.58 196.44Q857.18 197.83 854.80 197.83M854.80 195.91Q856.22 195.91 857.02 195.12Q857.82 194.33 857.82 192.79L857.82 189.29Q857.82 187.75 857.02 186.96Q856.22 186.17 854.80 186.17Q853.41 186.17 852.59 186.96Q851.78 187.75 851.78 189.29L851.78 192.79Q851.78 194.33 852.59 195.12Q853.41 195.91 854.80 195.91" fill="white" fill-opacity="0.7"/>
<path d="M866.85 197.64L864.69 197.64L864.69 184.44L866.85 184.44L866.85 186.96L866.90 186.96Q867.06 185.69 867.98 184.94Q868.89 184.20 870.42 184.20Q872.49 184.20 873.60 185.44Q874.72 186.67 874.72 188.95L874.72 190.08L872.56 190.08L872.56 188.95Q872.56 186.07 869.75 186.07Q868.34 186.07 867.59 186.89Q866.85 187.70 866.85 189.24" fill="white" fill-opacity="0.7"/>
<path d="M898.19 197.88Q895.79 197.88 894.40 196.54Q893.01 195.19 893.01 192.84L893.01 184.92Q893.01 182.57 894.40 181.22Q895.79 179.88 898.19 179.88Q900.54 179.88 901.94 181.24Q903.33 182.59 903.33 184.92L901.17 184.92Q901.17 183.43 900.39 182.63Q899.61 181.82 898.19 181.82Q896.78 181.82 895.97 182.63Q895.17 183.43 895.17 184.92L895.17 192.84Q895.17 194.33 895.97 195.13Q896.78 195.94 898.19 195.94Q899.61 195.94 900.39 195.13Q901.17 194.33 901.17 192.84L903.33 192.84Q903.33 195.17 901.94 196.52Q900.54 197.88 898.19 197.88" fill="white" fill-opacity="0.7"/>
<path d="M918.52 197.64L907.24 197.64L907.24 195.67L911.92 195.67L911.92 186.41L907.72 186.41L907.72 184.44L914.08 184.44L914.08 195.67L918.52 195.67L918.52 197.64M912.76 182.06Q911.97 182.06 911.51 181.66Q911.06 181.25 911.06 180.55Q911.06 179.83 911.51 179.41Q911.97 178.99 912.76 178.99Q913.55 178.99 914.01 179.41Q914.46 179.83 914.46 180.55Q914.46 181.25 914.01 181.66Q913.55 182.06 912.76 182.06" fill="white" fill-opacity="0.7"/>
<path d="M931.96 197.64L928.12 197.64Q926.49 197.64 925.50 196.69Q924.52 195.74 924.52 194.16L924.52 186.41L920.73 186.41L920.73 184.44L924.52 184.44L924.52 180.72L926.68 180.72L926.68 184.44L932.08 184.44L932.08 186.41L926.68 186.41L926.68 194.16Q926.68 194.83 927.08 195.25Q927.47 195.67 928.12 195.67L931.96 195.67" fill="white" fill-opacity="0.7"/>
<path d="M947.32 197.64L936.04 197.64L936.04 195.67L940.72 195.67L940.72 186.41L936.52 186.41L936.52 184.44L942.88 184.44L942.88 195.67L947.32 195.67L947.32 197.64M941.56 182.06Q940.77 182.06 940.31 181.66Q939.86 181.25 939.86 180.55Q939.86 179.83 940.31 179.41Q940.77 178.99 941.56 178.99Q942.35 178.99 942.81 179.41Q943.26 179.83 943.26 180.55Q943.26 181.25 942.81 181.66Q942.35 182.06 941.56 182.06" fill="white" fill-opacity="0.7"/>
<path d="M960.64 197.64L950.56 197.64L950.56 195.48L957.95 186.41L950.75 186.41L950.75 184.44L960.38 184.44L960.38 186.60L952.84 195.67L960.64 195.67" fill="white" fill-opacity="0.7"/>
<path d="M970 197.88Q967.67 197.88 966.24 196.48Q964.82 195.07 964.82 192.60L964.82 189.48Q964.82 187.01 966.24 185.60Q967.67 184.20 970 184.20Q971.56 184.20 972.72 184.82Q973.89 185.45 974.54 186.58Q975.18 187.70 975.18 189.24L975.18 191.59L966.93 191.59L966.93 192.84Q966.93 194.30 967.77 195.16Q968.61 196.01 970 196.01Q971.20 196.01 971.98 195.54Q972.76 195.07 972.93 194.28L975.09 194.28Q974.87 195.94 973.48 196.91Q972.09 197.88 970 197.88M966.93 189.24L966.93 189.91L973.07 189.91L973.07 189.24Q973.07 187.68 972.27 186.83Q971.46 185.98 970 185.98Q968.54 185.98 967.73 186.83Q966.93 187.68 966.93 189.24" fill="white" fill-opacity="0.7"/>
<path d="M981.57 197.64L979.41 197.64L979.41 184.44L981.57 184.44L981.57 186.96L981.59 186.96Q981.76 185.64 982.67 184.92Q983.58 184.20 985.10 184.20Q987.09 184.20 988.26 185.42Q989.44 186.65 989.44 188.76L989.44 197.64L987.28 197.64L987.28 189.14Q987.28 187.63 986.52 186.83Q985.77 186.02 984.47 186.02Q983.13 186.02 982.35 186.86Q981.57 187.70 981.57 189.24" fill="white" fill-opacity="0.7"/>
<path d="M1017.88 197.64L1008.52 197.64L1008.52 195.67L1012.10 195.67L1012.10 182.09L1008.52 182.09L1008.52 180.12L1017.88 180.12L1017.88 182.09L1014.30 182.09L1014.30 195.67L1017.88 195.67" fill="white" fill-opacity="0.7"/>
<path d="M1027.14 197.64L1022.61 197.64L1022.61 180.12L1027.14 180.12Q1028.85 180.12 1030.08 180.77Q1031.32 181.42 1032 182.59Q1032.69 183.77 1032.69 185.38L1032.69 192.36Q1032.69 193.97 1032 195.16Q1031.32 196.34 1030.08 196.99Q1028.85 197.64 1027.14 197.64M1024.77 182.04L1024.77 195.72L1027.14 195.72Q1028.73 195.72 1029.63 194.83Q1030.53 193.94 1030.53 192.36L1030.53 185.38Q1030.53 183.82 1029.63 182.93Q1028.73 182.04 1027.14 182.04" fill="white" fill-opacity="0.7"/>
<path d="M1042 197.88Q1041.11 197.88 1040.57 197.35Q1040.03 196.82 1040.03 195.98Q1040.03 195.10 1040.57 194.54Q1041.11 193.99 1042 193.99Q1042.89 193.99 1043.43 194.54Q1043.97 195.10 1043.97 195.98Q1043.97 196.82 1043.43 197.35Q1042.89 197.88 1042 197.88" fill="white" fill-opacity="0.7"/>
<path d="M76.11 136.06L66.42 136.06L84.56 65.98L97.14 65.98L115.18 136.06L105.49 136.06L101.07 117.82L80.53 117.82L76.11 136.06M87.54 88.92L82.45 109.95L99.15 109.95L94.16 89.02Q92.72 83.26 91.86 79.23Q90.99 75.20 90.80 73.76Q90.61 75.20 89.74 79.23Q88.88 83.26 87.54 88.92M137.55 136.06L128.05 136.06L128.05 65.98L150.80 65.98Q157.52 65.98 162.42 68.57Q167.31 71.16 170 75.82Q172.69 80.48 172.69 86.91Q172.69 93.24 170 97.90Q167.31 102.56 162.37 105.15Q157.42 107.74 150.80 107.74L137.55 107.74L137.55 136.06M137.55 74.43L137.55 99.29L150.80 99.29Q156.37 99.29 159.63 95.88Q162.90 92.48 162.90 86.91Q162.90 81.24 159.63 77.84Q156.37 74.43 150.80 74.43L137.55 74.43M225.10 136.06L186.90 136.06L186.90 127.42L201.20 127.42L201.20 74.62L186.90 74.62L186.90 65.98L225.10 65.98L225.10 74.62L210.80 74.62L210.80 127.42L225.10 127.42L225.10 136.06M263.98 137.02Q253.62 137.02 247.47 131.60Q241.33 126.17 241.33 116.67L250.83 116.67Q250.83 122.24 254.38 125.40Q257.94 128.57 263.98 128.57Q269.74 128.57 273.15 125.36Q276.56 122.14 276.56 116.76Q276.56 112.73 274.35 109.71Q272.14 106.68 268.11 105.63L257.74 102.84Q250.93 100.92 246.94 95.88Q242.96 90.84 242.96 83.93Q242.96 78.27 245.50 74Q248.05 69.72 252.66 67.37Q257.26 65.02 263.31 65.02Q269.46 65.02 274.11 67.37Q278.77 69.72 281.36 73.95Q283.95 78.17 283.95 83.74L274.54 83.74Q274.54 79.13 271.42 76.25Q268.30 73.37 263.31 73.37Q258.32 73.37 255.30 76.25Q252.27 79.13 252.27 83.74Q252.27 87.48 254.29 90.03Q256.30 92.57 259.95 93.63L270.61 96.51Q277.81 98.43 281.84 103.85Q285.87 109.28 285.87 116.76Q285.87 122.91 283.18 127.47Q280.50 132.03 275.55 134.52Q270.61 137.02 263.98 137.02M342.51 136.06L301.71 136.06L301.71 65.98L342.51 65.98L342.51 74.52L311.12 74.52L311.12 95.36L339.15 95.36L339.15 103.61L311.12 103.61L311.12 127.52L342.51 127.52L342.51 136.06M383.60 136.06L374.10 136.06L374.10 74.62L355.09 74.62L355.09 65.98L402.51 65.98L402.51 74.62L383.60 74.62L383.60 136.06M436.40 137.02Q426.51 137.02 421.18 131.55Q415.86 126.08 415.86 116.67L415.86 65.98L425.36 65.98L425.36 116.67Q425.36 122.24 428.10 125.40Q430.83 128.57 436.40 128.57Q441.87 128.57 444.70 125.40Q447.54 122.24 447.54 116.67L447.54 65.98L457.04 65.98L457.04 116.67Q457.04 126.17 451.71 131.60Q446.38 137.02 436.40 137.02M551.98 137.02Q542.29 137.02 536.58 131.60Q530.86 126.17 530.86 116.67L530.86 85.28Q530.86 75.87 536.58 70.44Q542.29 65.02 551.98 65.02Q561.58 65.02 567.30 70.49Q573.01 75.96 573.01 85.28L563.50 85.28Q563.50 79.61 560.43 76.54Q557.36 73.47 551.98 73.47Q546.51 73.47 543.44 76.54Q540.37 79.61 540.37 85.28L540.37 116.67Q540.37 122.43 543.44 125.50Q546.51 128.57 551.98 128.57Q557.36 128.57 560.43 125.50Q563.50 122.43 563.50 116.67L563.50 107.55L549.87 107.55L549.87 99.10L573.01 99.10L573.01 116.67Q573.01 126.08 567.30 131.55Q561.58 137.02 551.98 137.02M609.20 137.02Q599.60 137.02 594.03 131.45Q588.46 125.88 588.46 115.71L588.46 86.24Q588.46 76.16 594.03 70.59Q599.60 65.02 609.20 65.02Q618.80 65.02 624.37 70.54Q629.94 76.06 629.94 86.24L629.94 115.71Q629.94 125.88 624.37 131.45Q618.80 137.02 609.20 137.02M609.20 128.57Q614.58 128.57 617.50 125.50Q620.43 122.43 620.43 116.67L620.43 85.28Q620.43 79.61 617.55 76.54Q614.67 73.47 609.20 73.47Q603.73 73.47 600.85 76.54Q597.97 79.61 597.97 85.28L597.97 116.67Q597.97 122.43 600.90 125.50Q603.82 128.57 609.20 128.57M673.14 136.06L660.37 136.06L642.42 65.98L652.21 65.98L663.82 113.21Q664.98 117.72 665.79 121.90Q666.61 126.08 666.99 128.28Q667.28 126.08 668.19 121.85Q669.10 117.63 670.16 113.12L681.39 65.98L691.18 65.98L673.14 136.06M780.46 136.06L761.65 136.06L761.65 65.98L780.46 65.98Q787.28 65.98 792.32 68.62Q797.36 71.26 800.14 76.01Q802.93 80.76 802.93 87.20L802.93 114.75Q802.93 121.18 800.14 125.98Q797.36 130.78 792.32 133.42Q787.28 136.06 780.46 136.06M771.15 74.43L771.15 127.61L780.46 127.61Q786.51 127.61 789.97 124.16Q793.42 120.70 793.42 114.75L793.42 87.20Q793.42 81.24 789.97 77.84Q786.51 74.43 780.46 74.43L771.15 74.43M858.70 136.06L820.50 136.06L820.50 127.42L834.80 127.42L834.80 74.62L820.50 74.62L820.50 65.98L858.70 65.98L858.70 74.62L844.40 74.62L844.40 127.42L858.70 127.42L858.70 136.06MNaN 136.06L892.50 136.06L892.50 74.62L873.49 74.62L873.49 65.98L920.91 65.98L920.91 74.62LNaN 74.62LNaN 136.06M955.57 137.02Q945.87 137.02 940.16 131.60Q934.45 126.17 934.45 116.67L934.45 85.28Q934.45 75.87 940.16 70.44Q945.87 65.02 955.57 65.02Q965.17 65.02 970.88 70.49Q976.59 75.96 976.59 85.28L967.09 85.28Q967.09 79.61 964.02 76.54Q960.94 73.47 955.57 73.47Q950.10 73.47 947.02 76.54Q943.95 79.61 943.95 85.28L943.95 116.67Q943.95 122.43 947.02 125.50Q950.10 128.57 955.57 128.57Q960.94 128.57 964.02 125.50Q967.09 122.43 967.09 116.67L976.59 116.67Q976.59 126.08 970.88 131.55Q965.17 137.02 955.57 137.02M1001.65 136.06L992.14 136.06L992.14 65.98L1001.65 65.98L1001.65 95.55L1023.15 95.55L1023.15 65.98L1032.66 65.98L1032.66 136.06L1023.15 136.06L1023.15 104.19L1001.65 104.19" fill="url(#paint2_linear_0_1)"/>
<g id="Group 1">
<rect id="Rectangle 1" x="26" y="168" width="12" height="184" rx="5" fill="url(#paint3_linear_0_1)" fill-opacity="0.9"/>
</g>
<g id="Group 1_2">
<rect id="Rectangle 2" x="26" y="38" width="12" height="119" rx="5" fill="url(#paint4_linear_0_1)" fill-opacity="0.9"/>
</g>
<ellipse id="Ellipse 1" cx="148.5" cy="573" rx="215.5" ry="214" fill="url(#paint5_linear_0_1)" fill-opacity="0.4"/>
<rect id="Rectangle 3" x="1229" y="48" width="300" height="300" rx="25" fill="#FFFBFB" fill-opacity="0.9"/>
<g id="placeholder-logo"><g transform="translate(1229,48) translate(0.0,60.0) scale(1.2000)"><g fill="#666666">
  <path d="m88.05,27.65c-3.15,4 -3.2,51.2 -0.05,54.35c2.75,2.75 71.7,3.15 74.45,0.45c2.85,-2.9 2.3,-53.85 -0.65,-55.9c-1.95,-1.35 -7.15,-1.55 -36.95,-1.55l-34.7,0l-2.1,2.65zm69.45,3.35c0.65,0 1,8.6 1,23.75l0,23.75l-33,0l-33,0l-0.25,-23c-0.15,-12.6 -0.1,-23.45 0.15,-24.1c0.35,-0.85 8.9,-1.05 32.25,-0.75c17.55,0.2 32.3,0.35 32.85,0.35z"/>
  <path d="m99.15,37.3c-6.85,7.35 4.25,17.35 11.4,10.25c1.35,-1.35 2.45,-3.65 2.45,-5.05c0,-6.45 -9.35,-9.95 -13.85,-5.2z"/>
  <path d="m135,42.5c-0.7,0.85 -5.25,5.15 -10.1,9.6l-8.85,8.1l-3.2,-3.2l-3.15,-3.15l-6.35,6.3c-5.55,5.5 -6.35,6.75 -6.35,10.05l0,3.8l28.5,0l28.5,0l0,-8.6l0,-8.55l-8.15,-7.7c-9.35,-8.85 -9.15,-8.7 -10.85,-6.65zm7.25,15.2c0.95,0.9 1.75,2.9 1.75,4.45c6.35,-5.05 4.75,-7.15 4.9,-11.55c0.95,0 0,0 0,0l-6.65,7.1z"/>
  <path d="m53.65,110.75c0.1,4.8 0.45,8.65 0.75,8.5c0.35,-0.15 1.3,-0.25 2.1,-0.25c1.1,0 1.5,-1.2 1.5,-4.75l0,-4.75l3.25,5c4.9,7.5 6.2,6.75 6.55,-3.75c0.25,-8.15 0.15,-8.75 -1.7,-8.75c-1.65,0 -2.05,0.8 -2.3,4.75l-0.3,4.75l-2.8,-4.75c-4.85,-8.25 -7.25,-6.9 -7.05,4z"/>
  <path d="m91,108.9c0,9.65 0.3,10.1 6.1,10.1c5.8,0 7.15,-2.65 1.65,-3.2l-3.25,-0.3l-0.3,-6.75c-0.25,-5.95 -0.55,-6.75 -2.25,-6.75c-1.75,0 -1.95,0.7 -1.95,6.9z"/>
  <path d="m151,102.45c0,0.25 1,2.15 2.25,4.2c1.2,2.1 2.45,5.8 2.75,8.25c0.65,5.9 4,6.95 4,1.25c0.05,-2.1 1.25,-5.85 2.95,-8.9l2.9,-5.25l-2.5,0c-1.8,0 -2.8,0.85 -3.75,3.1l-1.3,3.05l-1.25,-3.05c-1.1,-2.6 -6.05,-4.8 -6.05,-2.65z"/>
  <path d="m191,107.45c0,9.05 3.4,8.85 4.25,-0.2c0.45,-5 0.35,-5.25 -1.9,-5.25c-2.2,0 -2.35,0.4 -2.35,5.45z"/>
  <path d="m180.8,104.75c-1.3,5.35 0.65,13.6 3.45,14.35c2.3,0.6 2.75,0.4 2.75,-1.2c0,-1.05 -0.45,-1.9 -1,-1.9c-0.55,0 -1,-1.6 -1,-3.5c0,-1.95 0.45,-3.5 1,-3.5c0.55,0 1,-0.7 1,-1.5c0,-0.85 -0.45,-1.5 -1,-1.5c-0.55,0 -1,-0.7 -1,-1.5c0,-2.1 -3.65,-1.9 -4.2,0.25z"/>
  <path d="m71.55,106.55c-2.2,2.25 -2.05,9.7 0.3,11.8c4.5,4.1 10.15,0.75 10.15,-6.1c0,-4.85 -2,-7.25 -6,-7.25c-1.55,0 -3.55,0.7 -4.45,1.55zm6.25,5.8c0.25,3.05 0,3.65 -1.6,3.65c-2.3,0 -3.25,-2.65 -2.05,-5.85c1.25,-3.35 3.3,-2.1 3.65,2.2z"/>
  <path d="m105.75,106.1c-2.5,1.45 -2.45,9.95 0.1,12.25c4.3,3.9 10.15,0.35 10.15,-6.2c0,-6 -5.15,-9.05 -10.25,-6.05zm6.05,6.25c0.25,3.05 0,3.65 -1.6,3.65c-2.3,0 -3.25,-2.65 -2.05,-5.85c1.25,-3.35 3.3,-2.1 3.65,2.2z"/>
  <path d="m119.2,106.2c-3.8,3.8 -0.4,12.55 4.4,11.35c1.9,-0.45 2.45,-0.3 2.15,0.65c-0.25,0.7 -1.55,1.2 -2.85,1.1c-4.05,-0.3 -5.35,0.45 -3.85,2.25c0.85,1.05 2.6,1.45 5.35,1.25l4.1,-0.3l0.3,-8.75l0.3,-8.75l-4.35,0c-2.4,0 -4.9,0.55 -5.55,1.2zm6.6,4.45c0.4,2.85 -2.15,4.85 -3.75,2.95c-0.9,-1.1 -0.9,-2 -0.05,-3.6c1.35,-2.5 3.4,-2.15 3.8,0.65z"/>
  <path d="m133.55,106.55c-2.2,2.25 -2.05,9.7 0.3,11.8c4.5,4.1 10.15,0.75 10.15,-6.1c0,-4.85 -2,-7.25 -6,-7.25c-1.55,0 -3.55,0.7 -4.45,1.55zm6.25,5.8c0.25,3.05 0,3.65 -1.6,3.65c-2.3,0 -3.25,-2.65 -2.05,-5.85c1.25,-3.35 3.3,-2.1 3.65,2.2z"/>
  <path d="m167.65,106.85c-3.9,4.3 -0.75,13.15 4.7,13.15c2.4,0 5.65,-2.75 5.65,-4.85c0,-1.4 -2.65,-1.55 -3.5,-0.15c-0.95,1.55 -4.5,1.15 -4.5,-0.5c0,-1.1 1.1,-1.5 4,-1.5c3.15,0 4,-0.35 4,-1.8c0,-5.3 -6.85,-8.25 -10.35,-4.35z"/>
  <path d="m191,117.5c0,2.15 0.4,2.6 2.25,2.3c1.5,-0.2 2.25,-1 2.25,-2.3c0,-1.3 -0.75,-2.1 -2.25,-2.3c-1.85,-0.3 -2.25,0.15 -2.25,2.3z"/>
 </g></g></g>
</g>
<defs>
<linearGradient id="paint0_linear_0_1" x1="0" y1="198" x2="1584" y2="198" gradientUnits="userSpaceOnUse">
<stop stop-color="#3D052C"/>
<stop offset="1"/>
</linearGradient>
<linearGradient id="paint1_linear_0_1" x1="323" y1="-224" x2="323" y2="352" gradientUnits="userSpaceOnUse">
<stop stop-color="#28F6F2" stop-opacity="0.4"/>
<stop offset="1" stop-color="#17908E" stop-opacity="0.7"/>
</linearGradient>
<linearGradient id="paint2_linear_0_1" x1="148.5" y1="38" x2="148.5" y2="140" gradientUnits="userSpaceOnUse">
<stop stop-color="white"/>
<stop offset="1" stop-color="#999999"/>
</linearGradient>
<linearGradient id="paint3_linear_0_1" x1="38" y1="260" x2="26" y2="260" gradientUnits="userSpaceOnUse">
<stop stop-color="#D9D9D9"/>
<stop offset="1" stop-color="#737373"/>
</linearGradient>
<linearGradient id="paint4_linear_0_1" x1="38" y1="97.5" x2="26" y2="97.5" gradientUnits="userSpaceOnUse">
<stop stop-color="#D9D9D9"/>
<stop offset="1" stop-color="#737373"/>
</linearGradient>
<linearGradient id="paint5_linear_0_1" x1="27.5" y1="434.5" x2="148.5" y2="787" gradientUnits="userSpaceOnUse">
<stop stop-color="#2E21BC"/>
<stop offset="1" stop-color="#150F56"/>
</linearGradient>
<clipPath id="clip0_0_1">
<rect width="1584" height="396" fill="white"/>
</clipPath>
</defs>
</svg>
